<svg width="110" height="110" viewBox="0 0 110 110" fill="none" xmlns="http://www.w3.org/2000/svg">
<rect width="110" height="110" fill="#407B9D"/>
<path d="M17.4834 30L16.5518 26.9414H11.8672L10.9355 30H8L12.5352 17.0977H15.8662L20.4189 30H17.4834ZM15.9014 24.6562C15.04 21.8848 14.5537 20.3174 14.4424 19.9541C14.3369 19.5908 14.2607 19.3037 14.2139 19.0928C14.0205 19.8428 13.4668 21.6973 12.5527 24.6562H15.9014ZM27.2305 30.1758C26.0762 30.1758 25.1709 29.7568 24.5146 28.9189H24.374C24.4678 29.7393 24.5146 30.2139 24.5146 30.3428V34.3242H21.834V20.1738H24.0137L24.3916 21.4482H24.5146C25.1416 20.4756 26.0703 19.9893 27.3008 19.9893C28.4609 19.9893 29.3691 20.4375 30.0254 21.334C30.6816 22.2305 31.0098 23.4756 31.0098 25.0693C31.0098 26.1182 30.8545 27.0293 30.5439 27.8027C30.2393 28.5762 29.8027 29.165 29.2344 29.5693C28.666 29.9736 27.998 30.1758 27.2305 30.1758ZM26.4395 22.1338C25.7773 22.1338 25.2939 22.3389 24.9893 22.749C24.6846 23.1533 24.5264 23.8242 24.5146 24.7617V25.0518C24.5146 26.1064 24.6699 26.8623 24.9805 27.3193C25.2969 27.7764 25.7949 28.0049 26.4746 28.0049C27.6758 28.0049 28.2764 27.0146 28.2764 25.0342C28.2764 24.0674 28.127 23.3438 27.8281 22.8633C27.5352 22.377 27.0723 22.1338 26.4395 22.1338ZM38.709 19.9893C39.0723 19.9893 39.374 20.0156 39.6143 20.0684L39.4121 22.582C39.1953 22.5234 38.9316 22.4941 38.6211 22.4941C37.7656 22.4941 37.0977 22.7139 36.6172 23.1533C36.1426 23.5928 35.9053 24.208 35.9053 24.999V30H33.2246V20.1738H35.2549L35.6504 21.8262H35.7822C36.0869 21.2754 36.4971 20.833 37.0127 20.499C37.5342 20.1592 38.0996 19.9893 38.709 19.9893ZM41.2842 17.6338C41.2842 16.7607 41.7705 16.3242 42.7432 16.3242C43.7158 16.3242 44.2021 16.7607 44.2021 17.6338C44.2021 18.0498 44.0791 18.375 43.833 18.6094C43.5928 18.8379 43.2295 18.9521 42.7432 18.9521C41.7705 18.9521 41.2842 18.5127 41.2842 17.6338ZM44.0791 30H41.3984V20.1738H44.0791V30ZM49.5811 30H46.9004V16.3242H49.5811V30ZM17.3428 55H8.7207V53.1104L11.7441 49.8496C12.125 49.4395 12.4707 49.0615 12.7812 48.7158C13.0918 48.3701 13.3584 48.0332 13.5811 47.7051C13.8037 47.377 13.9766 47.043 14.0996 46.7031C14.2227 46.3633 14.2842 45.9971 14.2842 45.6045C14.2842 45.1709 14.1523 44.834 13.8887 44.5938C13.6309 44.3535 13.2822 44.2334 12.8428 44.2334C12.3799 44.2334 11.9346 44.3477 11.5068 44.5762C11.0791 44.8047 10.6309 45.1299 10.1621 45.5518L8.68555 43.8027C8.94922 43.5625 9.22461 43.334 9.51172 43.1172C9.79883 42.8945 10.1152 42.6982 10.4609 42.5283C10.8066 42.3584 11.1875 42.2236 11.6035 42.124C12.0195 42.0186 12.4854 41.9658 13.001 41.9658C13.6162 41.9658 14.167 42.0508 14.6533 42.2207C15.1455 42.3906 15.5645 42.6338 15.9102 42.9502C16.2559 43.2607 16.5195 43.6387 16.7012 44.084C16.8887 44.5293 16.9824 45.0303 16.9824 45.5869C16.9824 46.0908 16.8945 46.5742 16.7188 47.0371C16.543 47.4941 16.3027 47.9453 15.998 48.3906C15.6934 48.8301 15.3389 49.2695 14.9346 49.709C14.5361 50.1426 14.1084 50.585 13.6514 51.0361L12.1045 52.5918V52.7148H17.3428V55ZM27.2744 48.5752C27.2744 49.6123 27.1924 50.5381 27.0283 51.3525C26.8701 52.167 26.6123 52.8584 26.2549 53.4268C25.9033 53.9951 25.4463 54.4287 24.8838 54.7275C24.3271 55.0264 23.6533 55.1758 22.8623 55.1758C22.1182 55.1758 21.4707 55.0264 20.9199 54.7275C20.3691 54.4287 19.9121 53.9951 19.5488 53.4268C19.1855 52.8584 18.9131 52.167 18.7314 51.3525C18.5557 50.5381 18.4678 49.6123 18.4678 48.5752C18.4678 47.5381 18.5469 46.6094 18.7051 45.7891C18.8691 44.9688 19.127 44.2744 19.4785 43.7061C19.8301 43.1377 20.2842 42.7041 20.8408 42.4053C21.3975 42.1006 22.0713 41.9482 22.8623 41.9482C23.6006 41.9482 24.2451 42.0977 24.7959 42.3965C25.3467 42.6953 25.8066 43.1289 26.1758 43.6973C26.5449 44.2656 26.8203 44.96 27.002 45.7803C27.1836 46.6006 27.2744 47.5322 27.2744 48.5752ZM21.1748 48.5752C21.1748 50.04 21.3008 51.1416 21.5527 51.8799C21.8047 52.6182 22.2412 52.9873 22.8623 52.9873C23.4717 52.9873 23.9082 52.6211 24.1719 51.8887C24.4414 51.1562 24.5762 50.0518 24.5762 48.5752C24.5762 47.1045 24.4414 46 24.1719 45.2617C23.9082 44.5176 23.4717 44.1455 22.8623 44.1455C22.5518 44.1455 22.2881 44.2393 22.0713 44.4268C21.8604 44.6143 21.6875 44.8926 21.5527 45.2617C21.418 45.6309 21.3213 46.0938 21.2627 46.6504C21.2041 47.2012 21.1748 47.8428 21.1748 48.5752ZM33.374 53.04C33.8428 53.04 34.4053 52.9375 35.0615 52.7324V54.7275C34.3936 55.0264 33.5732 55.1758 32.6006 55.1758C31.5283 55.1758 30.7461 54.9062 30.2539 54.3672C29.7676 53.8223 29.5244 53.0078 29.5244 51.9238V47.1865H28.2412V46.0527L29.7178 45.1562L30.4912 43.082H32.2051V45.1738H34.9561V47.1865H32.2051V51.9238C32.2051 52.3047 32.3105 52.5859 32.5215 52.7676C32.7383 52.9492 33.0225 53.04 33.374 53.04ZM46.127 55H43.4463V49.2607C43.4463 47.8428 42.9189 47.1338 41.8643 47.1338C41.1143 47.1338 40.5723 47.3887 40.2383 47.8984C39.9043 48.4082 39.7373 49.2344 39.7373 50.377V55H37.0566V41.3242H39.7373V44.1104C39.7373 44.3271 39.7168 44.8369 39.6758 45.6396L39.6143 46.4307H39.7549C40.3525 45.4697 41.3018 44.9893 42.6025 44.9893C43.7568 44.9893 44.6328 45.2998 45.2305 45.9209C45.8281 46.542 46.127 47.4326 46.127 48.5928V55Z" fill="white"/>
<path d="M58.6855 89.1074L58.4395 88.7207C58.6973 87.6543 59.1191 86.3184 59.7051 84.7129C60.3027 83.0957 60.9121 81.625 61.5332 80.3008H65.3828C64.6094 83.4297 64.0176 86.3652 63.6074 89.1074H58.6855ZM85.2109 106H67.2461V102.221L73.6973 95.6992C75.6074 93.7422 76.8555 92.3887 77.4414 91.6387C78.0273 90.877 78.4492 90.1738 78.707 89.5293C78.9648 88.8848 79.0938 88.2168 79.0938 87.5254C79.0938 86.4941 78.8066 85.7266 78.2324 85.2227C77.6699 84.7188 76.9141 84.4668 75.9648 84.4668C74.9688 84.4668 74.002 84.6953 73.0645 85.1523C72.127 85.6094 71.1484 86.2598 70.1289 87.1035L67.1758 83.6055C68.4414 82.5273 69.4902 81.7656 70.3223 81.3203C71.1543 80.875 72.0625 80.5352 73.0469 80.3008C74.0312 80.0547 75.1328 79.9316 76.3516 79.9316C77.957 79.9316 79.375 80.2246 80.6055 80.8105C81.8359 81.3965 82.791 82.2168 83.4707 83.2715C84.1504 84.3262 84.4902 85.5332 84.4902 86.8926C84.4902 88.0762 84.2793 89.1895 83.8574 90.2324C83.4473 91.2637 82.8027 92.3242 81.9238 93.4141C81.0566 94.5039 79.5215 96.0566 77.3184 98.0723L74.0137 101.184V101.43H85.2109V106ZM105.672 93.1504C105.672 97.6387 104.934 100.961 103.457 103.117C101.992 105.273 99.7305 106.352 96.6719 106.352C93.707 106.352 91.4688 105.238 89.957 103.012C88.457 100.785 87.707 97.498 87.707 93.1504C87.707 88.6152 88.4395 85.2754 89.9043 83.1309C91.3691 80.9746 93.625 79.8965 96.6719 79.8965C99.6367 79.8965 101.875 81.0215 103.387 83.2715C104.91 85.5215 105.672 88.8145 105.672 93.1504ZM93.1035 93.1504C93.1035 96.3027 93.373 98.5645 93.9121 99.9355C94.4629 101.295 95.3828 101.975 96.6719 101.975C97.9375 101.975 98.8516 101.283 99.4141 99.9004C99.9766 98.5176 100.258 96.2676 100.258 93.1504C100.258 89.998 99.9707 87.7363 99.3965 86.3652C98.834 84.9824 97.9258 84.291 96.6719 84.291C95.3945 84.291 94.4805 84.9824 93.9297 86.3652C93.3789 87.7363 93.1035 89.998 93.1035 93.1504Z" fill="#FFC69F"/>
</svg>
