<svg width="110" height="110" viewBox="0 0 110 110" fill="none" xmlns="http://www.w3.org/2000/svg">
<rect width="110" height="110" fill="#407B9D"/>
<path d="M60.6855 89.1074L60.4395 88.7207C60.6973 87.6543 61.1191 86.3184 61.7051 84.7129C62.3027 83.0957 62.9121 81.625 63.5332 80.3008H67.3828C66.6094 83.4297 66.0176 86.3652 65.6074 89.1074H60.6855ZM87.2109 106H69.2461V102.221L75.6973 95.6992C77.6074 93.7422 78.8555 92.3887 79.4414 91.6387C80.0273 90.877 80.4492 90.1738 80.707 89.5293C80.9648 88.8848 81.0938 88.2168 81.0938 87.5254C81.0938 86.4941 80.8066 85.7266 80.2324 85.2227C79.6699 84.7188 78.9141 84.4668 77.9648 84.4668C76.9688 84.4668 76.002 84.6953 75.0645 85.1523C74.127 85.6094 73.1484 86.2598 72.1289 87.1035L69.1758 83.6055C70.4414 82.5273 71.4902 81.7656 72.3223 81.3203C73.1543 80.875 74.0625 80.5352 75.0469 80.3008C76.0312 80.0547 77.1328 79.9316 78.3516 79.9316C79.957 79.9316 81.375 80.2246 82.6055 80.8105C83.8359 81.3965 84.791 82.2168 85.4707 83.2715C86.1504 84.3262 86.4902 85.5332 86.4902 86.8926C86.4902 88.0762 86.2793 89.1895 85.8574 90.2324C85.4473 91.2637 84.8027 92.3242 83.9238 93.4141C83.0566 94.5039 81.5215 96.0566 79.3184 98.0723L76.0137 101.184V101.43H87.2109V106ZM107.672 93.1504C107.672 97.6387 106.934 100.961 105.457 103.117C103.992 105.273 101.73 106.352 98.6719 106.352C95.707 106.352 93.4688 105.238 91.957 103.012C90.457 100.785 89.707 97.498 89.707 93.1504C89.707 88.6152 90.4395 85.2754 91.9043 83.1309C93.3691 80.9746 95.625 79.8965 98.6719 79.8965C101.637 79.8965 103.875 81.0215 105.387 83.2715C106.91 85.5215 107.672 88.8145 107.672 93.1504ZM95.1035 93.1504C95.1035 96.3027 95.373 98.5645 95.9121 99.9355C96.4629 101.295 97.3828 101.975 98.6719 101.975C99.9375 101.975 100.852 101.283 101.414 99.9004C101.977 98.5176 102.258 96.2676 102.258 93.1504C102.258 89.998 101.971 87.7363 101.396 86.3652C100.834 84.9824 99.9258 84.291 98.6719 84.291C97.3945 84.291 96.4805 84.9824 95.9297 86.3652C95.3789 87.7363 95.1035 89.998 95.1035 93.1504Z" fill="#FFC69F"/>
<path d="M7.27246 33.7793C6.65723 33.7793 6.12109 33.7148 5.66406 33.5859V31.3184C6.13281 31.4355 6.56055 31.4941 6.94727 31.4941C7.54492 31.4941 7.97266 31.3066 8.23047 30.9316C8.48828 30.5625 8.61719 29.9824 8.61719 29.1914V17.1504H11.3418V29.1738C11.3418 30.6738 10.999 31.8164 10.3135 32.6016C9.62793 33.3867 8.61426 33.7793 7.27246 33.7793ZM21.3262 30L20.9658 28.7432H20.8252C20.5381 29.2002 20.1309 29.5547 19.6035 29.8066C19.0762 30.0527 18.4756 30.1758 17.8018 30.1758C16.6475 30.1758 15.7773 29.8682 15.1914 29.2529C14.6055 28.6318 14.3125 27.7412 14.3125 26.5811V20.1738H16.9932V25.9131C16.9932 26.6221 17.1191 27.1553 17.3711 27.5127C17.623 27.8643 18.0244 28.04 18.5752 28.04C19.3252 28.04 19.8672 27.791 20.2012 27.293C20.5352 26.7891 20.7021 25.957 20.7021 24.7969V20.1738H23.3828V30H21.3262ZM35.2656 30H32.585V24.2607C32.585 23.5518 32.459 23.0215 32.207 22.6699C31.9551 22.3125 31.5537 22.1338 31.0029 22.1338C30.2529 22.1338 29.7109 22.3857 29.377 22.8896C29.043 23.3877 28.876 24.2168 28.876 25.377V30H26.1953V20.1738H28.2432L28.6035 21.4307H28.7529C29.0518 20.9561 29.4619 20.5986 29.9834 20.3584C30.5107 20.1123 31.1084 19.9893 31.7764 19.9893C32.9189 19.9893 33.7861 20.2998 34.3779 20.9209C34.9697 21.5361 35.2656 22.4268 35.2656 23.5928V30ZM42.0947 21.8965C41.5264 21.8965 41.0811 22.0781 40.7588 22.4414C40.4365 22.7988 40.252 23.3086 40.2051 23.9707H43.9668C43.9551 23.3086 43.7822 22.7988 43.4482 22.4414C43.1143 22.0781 42.6631 21.8965 42.0947 21.8965ZM42.4727 30.1758C40.8906 30.1758 39.6543 29.7393 38.7637 28.8662C37.873 27.9932 37.4277 26.7568 37.4277 25.1572C37.4277 23.5107 37.8379 22.2393 38.6582 21.3428C39.4844 20.4404 40.624 19.9893 42.0771 19.9893C43.4658 19.9893 44.5469 20.3848 45.3203 21.1758C46.0938 21.9668 46.4805 23.0596 46.4805 24.4541V25.7549H40.1436C40.1729 26.5166 40.3984 27.1113 40.8203 27.5391C41.2422 27.9668 41.834 28.1807 42.5957 28.1807C43.1875 28.1807 43.7471 28.1191 44.2744 27.9961C44.8018 27.873 45.3525 27.6768 45.9268 27.4072V29.4814C45.458 29.7158 44.957 29.8887 44.4238 30C43.8906 30.1172 43.2402 30.1758 42.4727 30.1758ZM14.1807 55H11.4648V47.5645C11.4648 47.4121 11.4648 47.2305 11.4648 47.0195C11.4707 46.8027 11.4766 46.5801 11.4824 46.3516C11.4941 46.1172 11.5029 45.8828 11.5088 45.6484C11.5205 45.4141 11.5293 45.2002 11.5352 45.0068C11.5059 45.042 11.4561 45.0947 11.3857 45.165C11.3154 45.2354 11.2363 45.3145 11.1484 45.4023C11.0605 45.4844 10.9697 45.5693 10.876 45.6572C10.7822 45.7451 10.6914 45.8242 10.6035 45.8945L9.12695 47.0811L7.80859 45.4463L11.9482 42.1504H14.1807V55ZM21.8799 41.9834C22.4131 41.9834 22.917 42.0479 23.3916 42.1768C23.8662 42.3057 24.2822 42.499 24.6396 42.7568C24.9971 43.0146 25.2812 43.3369 25.4922 43.7236C25.7031 44.1104 25.8086 44.5645 25.8086 45.0859C25.8086 45.4727 25.75 45.8242 25.6328 46.1406C25.5156 46.4512 25.3545 46.7354 25.1494 46.9932C24.9443 47.2451 24.7012 47.4707 24.4199 47.6699C24.1387 47.8691 23.834 48.0508 23.5059 48.2148C23.8457 48.3965 24.1768 48.5986 24.499 48.8213C24.8271 49.0439 25.1172 49.2959 25.3691 49.5771C25.6211 49.8525 25.8232 50.1631 25.9756 50.5088C26.1279 50.8545 26.2041 51.2412 26.2041 51.6689C26.2041 52.2021 26.0986 52.6855 25.8877 53.1191C25.6768 53.5527 25.3809 53.9219 25 54.2266C24.6191 54.5312 24.1621 54.7656 23.6289 54.9297C23.1016 55.0938 22.5186 55.1758 21.8799 55.1758C21.1885 55.1758 20.5732 55.0967 20.0342 54.9385C19.4951 54.7803 19.041 54.5547 18.6719 54.2617C18.3027 53.9688 18.0215 53.6084 17.8281 53.1807C17.6406 52.7529 17.5469 52.2725 17.5469 51.7393C17.5469 51.2998 17.6113 50.9043 17.7402 50.5527C17.8691 50.2012 18.0449 49.8848 18.2676 49.6035C18.4902 49.3223 18.751 49.0732 19.0498 48.8564C19.3486 48.6396 19.668 48.4492 20.0078 48.2852C19.7207 48.1035 19.4512 47.9072 19.1992 47.6963C18.9473 47.4795 18.7275 47.2422 18.54 46.9844C18.3584 46.7207 18.2119 46.4307 18.1006 46.1143C17.9951 45.7979 17.9424 45.4492 17.9424 45.0684C17.9424 44.5586 18.0479 44.1133 18.2588 43.7324C18.4756 43.3457 18.7656 43.0234 19.1289 42.7656C19.4922 42.502 19.9111 42.3057 20.3857 42.1768C20.8604 42.0479 21.3584 41.9834 21.8799 41.9834ZM20.0605 51.5811C20.0605 51.8154 20.0986 52.0322 20.1748 52.2314C20.251 52.4248 20.3623 52.5918 20.5088 52.7324C20.6611 52.873 20.8486 52.9844 21.0713 53.0664C21.2939 53.1426 21.5518 53.1807 21.8447 53.1807C22.46 53.1807 22.9199 53.0371 23.2246 52.75C23.5293 52.457 23.6816 52.0732 23.6816 51.5986C23.6816 51.3525 23.6289 51.1328 23.5234 50.9395C23.4238 50.7402 23.292 50.5586 23.1279 50.3945C22.9697 50.2246 22.7881 50.0693 22.583 49.9287C22.3779 49.7881 22.1729 49.6533 21.9678 49.5244L21.7744 49.4014C21.5166 49.5303 21.2822 49.6709 21.0713 49.8232C20.8604 49.9697 20.6787 50.1338 20.5264 50.3154C20.3799 50.4912 20.2656 50.6846 20.1836 50.8955C20.1016 51.1064 20.0605 51.335 20.0605 51.5811ZM21.8623 43.9697C21.6689 43.9697 21.4873 43.999 21.3174 44.0576C21.1533 44.1162 21.0098 44.2012 20.8867 44.3125C20.7695 44.4238 20.6758 44.5615 20.6055 44.7256C20.5352 44.8896 20.5 45.0742 20.5 45.2793C20.5 45.5254 20.5352 45.7393 20.6055 45.9209C20.6816 46.0967 20.7812 46.2549 20.9043 46.3955C21.0332 46.5303 21.1797 46.6533 21.3438 46.7646C21.5137 46.8701 21.6924 46.9756 21.8799 47.0811C22.0615 46.9873 22.2344 46.8848 22.3984 46.7734C22.5625 46.6621 22.7061 46.5361 22.8291 46.3955C22.958 46.249 23.0605 46.085 23.1367 45.9033C23.2129 45.7217 23.251 45.5137 23.251 45.2793C23.251 45.0742 23.2158 44.8896 23.1455 44.7256C23.0752 44.5615 22.9785 44.4238 22.8555 44.3125C22.7324 44.2012 22.5859 44.1162 22.416 44.0576C22.2461 43.999 22.0615 43.9697 21.8623 43.9697ZM32.374 53.04C32.8428 53.04 33.4053 52.9375 34.0615 52.7324V54.7275C33.3936 55.0264 32.5732 55.1758 31.6006 55.1758C30.5283 55.1758 29.7461 54.9062 29.2539 54.3672C28.7676 53.8223 28.5244 53.0078 28.5244 51.9238V47.1865H27.2412V46.0527L28.7178 45.1562L29.4912 43.082H31.2051V45.1738H33.9561V47.1865H31.2051V51.9238C31.2051 52.3047 31.3105 52.5859 31.5215 52.7676C31.7383 52.9492 32.0225 53.04 32.374 53.04ZM45.127 55H42.4463V49.2607C42.4463 47.8428 41.9189 47.1338 40.8643 47.1338C40.1143 47.1338 39.5723 47.3887 39.2383 47.8984C38.9043 48.4082 38.7373 49.2344 38.7373 50.377V55H36.0566V41.3242H38.7373V44.1104C38.7373 44.3271 38.7168 44.8369 38.6758 45.6396L38.6143 46.4307H38.7549C39.3525 45.4697 40.3018 44.9893 41.6025 44.9893C42.7568 44.9893 43.6328 45.2998 44.2305 45.9209C44.8281 46.542 45.127 47.4326 45.127 48.5928V55Z" fill="white"/>
</svg>
