<svg xmlns="http://www.w3.org/2000/svg" viewBox="0 0 196.5 60"><path d="M73.9 42.7l-1.1.7-8.9-12.8 1.1-.7 8.9 12.8zm-8.4.4h-1.4v-8.6h1.4v8.6zm8.3-4.3h-1.4v-8.6h1.4v8.6zM88 35.9c-.3-3-2.6-4.8-5.2-4.8-2.5 0-4.8 1.9-5.2 4.8h-1.4c.4-3.7 3.4-6.1 6.6-6.1s6.2 2.3 6.5 6.1H88zm1.3 1.5c-.3 3.8-3.3 6.1-6.5 6.1s-6.2-2.3-6.6-6.1h1.4c.3 3 2.6 4.9 5.2 4.9 2.5 0 4.8-1.9 5.2-4.9h1.3zm3.7 5.7h-1.4V30.2H93v12.9zm7.1-.5l-1.1.8-4.7-6.2 1.1-.8 4.7 6.2zM97.7 37l-.7-1.1c.9-.3 1.3-1.2 1.3-2.1 0-1.3-.8-2.4-2.3-2.4h-1.5v-1.2h1.6c2.2 0 3.6 1.7 3.6 3.6.1 1.4-.7 2.7-2 3.2zm6-6.8v12.9h-1.4V30.2h1.4zm3.2 12.9h-1.7v-1.2h1.5c3.1 0 5-2.5 5-5.3s-1.9-5.3-5-5.3h-1.5v-1.2h1.7c3.9 0 6.2 3.1 6.2 6.5s-2.4 6.5-6.2 6.5zm9.9 0h-1.4V30.2h1.4v12.9zm13.4-8.5c-.8-2.4-2.7-3.6-4.7-3.6-2.4 0-4.7 1.7-5 4.8h-1.4c.4-3.9 3.4-6 6.4-6 2.5 0 5 1.4 6 4.2l-1.3.6zm1.3 4.7c-1.1 2.8-3.5 4.2-6 4.2-3 0-6-2.1-6.4-6.1h1.4c.3 3.1 2.7 4.9 5 4.9 2 0 3.9-1.2 4.7-3.5l1.3.5zm3.9 3.8H134V30.2h1.4v12.9zm8.2 0h-1.4v-5.9h-5.4V36h5.4v-5.9h1.4v13zm4.1 0h-1.4V30.2h1.4v12.9zm5.6-12.6l-2.3 5.1-1.3-.6 2.3-5.1 1.3.6zm12.1 12.6H158v-1.2h7.4v1.2zm-.7-7.1l-4.1 5.1-1.1-.8 4.1-5.1c.4-.5.6-1.1.6-1.7 0-1.4-1-2.3-2.3-2.3-1.2 0-2.4.9-2.6 2.4l-1.2-.4a3.66 3.66 0 0 1 3.7-3.2c2 0 3.7 1.4 3.7 3.6.1.7-.2 1.6-.8 2.4zm14.4-.1c-.3-3-2.6-4.8-5.2-4.8-2.5 0-4.8 1.9-5.2 4.8h-1.4c.4-3.7 3.4-6.1 6.6-6.1s6.2 2.3 6.5 6.1h-1.3zm1.3 1.5c-.3 3.8-3.3 6.1-6.5 6.1s-6.2-2.3-6.6-6.1h1.4c.3 3 2.6 4.9 5.2 4.9 2.5 0 4.8-1.9 5.2-4.9h1.3z" fill="#407b9d"/><path fill="#f6caa3" d="M12.3 33.4c3.4 6.2 4.7 7.1 5.9 8 3.5 2.8 7.3 3.3 8.9 3.4 1.5.2 8.8.5 10.8-3.3 1.4-2.6-.8-6.4-3.7-11.5-1.6-2.7-2-3.2-2.3-3.5-2.3-2.3-4.8-3.3-7.3-4.2-3.1-1.1-5.5-1.5-7.3-1.8-5.5-.8-7.3-.6-8.4.8-1.1 1.6-.5 4.9 3.4 12.1"/><path fill="#407b9d" d="M44.7 40.2c1.9.4 3.7-.2 4.7-.6 1.4-.6 2.5-1.4 3.1-1.9 0 0 5.7-4.2 8.1-17.5.1-.6.2-1.2.1-1.8 0-.4 0-.7-.1-.8l-.2-.6c0-.1-.1-.2-.1-.3-.1-.2-.3-.4-.4-.6-.2-.2-.4-.4-.8-.6-2.2-1.3-7.3.3-8.7.7-1.5.5-3 .9-4.6 1.6-.5.2-1.8.8-3.1 1.5-4.1 2.2-6.5 3.5-7.1 5.8-.9 3.1 1.6 7 2.3 8.2 1.8 3.1 3.8 6.2 6.8 6.9"/></svg>