<?xml version="1.0" encoding="UTF-8" standalone="no"?>
<svg
   xmlns:dc="http://purl.org/dc/elements/1.1/"
   xmlns:cc="http://creativecommons.org/ns#"
   xmlns:rdf="http://www.w3.org/1999/02/22-rdf-syntax-ns#"
   xmlns:svg="http://www.w3.org/2000/svg"
   xmlns="http://www.w3.org/2000/svg"
   xmlns:sodipodi="http://sodipodi.sourceforge.net/DTD/sodipodi-0.dtd"
   xmlns:inkscape="http://www.inkscape.org/namespaces/inkscape"
   viewBox="0 0 196.5 60"
   version="1.1"
   id="svg8"
   sodipodi:docname="logo_new.svg"
   inkscape:version="0.92.4 5da689c313, 2019-01-14">
  <metadata
     id="metadata14">
    <rdf:RDF>
      <cc:Work
         rdf:about="">
        <dc:format>image/svg+xml</dc:format>
        <dc:type
           rdf:resource="http://purl.org/dc/dcmitype/StillImage" />
      </cc:Work>
    </rdf:RDF>
  </metadata>
  <defs
     id="defs12" />
  <sodipodi:namedview
     pagecolor="#ffffff"
     bordercolor="#666666"
     borderopacity="1"
     objecttolerance="10"
     gridtolerance="10"
     guidetolerance="10"
     inkscape:pageopacity="0"
     inkscape:pageshadow="2"
     inkscape:window-width="1920"
     inkscape:window-height="1008"
     id="namedview10"
     showgrid="false"
     inkscape:zoom="1.3587786"
     inkscape:cx="-48.597258"
     inkscape:cy="113.40069"
     inkscape:window-x="0"
     inkscape:window-y="0"
     inkscape:window-maximized="1"
     inkscape:current-layer="svg8" />
  <path
     fill="#f6caa3"
     d="M12.3 33.4c3.4 6.2 4.7 7.1 5.9 8 3.5 2.8 7.3 3.3 8.9 3.4 1.5.2 8.8.5 10.8-3.3 1.4-2.6-.8-6.4-3.7-11.5-1.6-2.7-2-3.2-2.3-3.5-2.3-2.3-4.8-3.3-7.3-4.2-3.1-1.1-5.5-1.5-7.3-1.8-5.5-.8-7.3-.6-8.4.8-1.1 1.6-.5 4.9 3.4 12.1"
     id="path4"
     style="fill:#37bfaa;fill-opacity:1" />
  <path
     fill="#407b9d"
     d="M44.7 40.2c1.9.4 3.7-.2 4.7-.6 1.4-.6 2.5-1.4 3.1-1.9 0 0 5.7-4.2 8.1-17.5.1-.6.2-1.2.1-1.8 0-.4 0-.7-.1-.8l-.2-.6c0-.1-.1-.2-.1-.3-.1-.2-.3-.4-.4-.6-.2-.2-.4-.4-.8-.6-2.2-1.3-7.3.3-8.7.7-1.5.5-3 .9-4.6 1.6-.5.2-1.8.8-3.1 1.5-4.1 2.2-6.5 3.5-7.1 5.8-.9 3.1 1.6 7 2.3 8.2 1.8 3.1 3.8 6.2 6.8 6.9"
     id="path6"
     style="fill:#8a6fb7;fill-opacity:1" />
  <text
     xml:space="preserve"
     style="font-style:normal;font-variant:normal;font-weight:normal;font-stretch:normal;font-size:16.54310989px;line-height:1.25;font-family:AnoStencilW00-Regular;-inkscape-font-specification:'AnoStencilW00-Regular, Normal';font-variant-ligatures:normal;font-variant-caps:normal;font-variant-numeric:normal;font-feature-settings:normal;text-align:start;letter-spacing:0px;word-spacing:0px;writing-mode:lr-tb;text-anchor:start;fill:#8a6fb7;fill-opacity:1;stroke:none;stroke-width:0.41357771"
     x="65.343224"
     y="43.103237"
     id="text832"
     transform="scale(0.98999574,1.0101054)"><tspan
       sodipodi:role="line"
       id="tspan830"
       x="65.343224"
       y="43.103237"
       style="stroke-width:0.41357771">ACCPTHA '19</tspan></text>
</svg>
