<svg width="110" height="110" viewBox="0 0 110 110" fill="none" xmlns="http://www.w3.org/2000/svg">
<rect width="110" height="110" fill="#407B9D"/>
<path d="M15.0576 30L11.9639 19.9189H11.8848C11.9961 21.9697 12.0518 23.3379 12.0518 24.0234V30H9.61719V17.1504H13.3262L16.3672 26.9766H16.4199L19.6455 17.1504H23.3545V30H20.8145V23.918C20.8145 23.6309 20.8174 23.2998 20.8232 22.9248C20.835 22.5498 20.876 21.5537 20.9463 19.9365H20.8672L17.5537 30H15.0576ZM32.627 30L32.1084 28.6641H32.0381C31.5869 29.2324 31.1211 29.6279 30.6406 29.8506C30.166 30.0674 29.5449 30.1758 28.7773 30.1758C27.834 30.1758 27.0898 29.9062 26.5449 29.3672C26.0059 28.8281 25.7363 28.0605 25.7363 27.0645C25.7363 26.0215 26.0996 25.2539 26.8262 24.7617C27.5586 24.2637 28.6602 23.9883 30.1309 23.9355L31.8359 23.8828V23.4521C31.8359 22.4561 31.3262 21.958 30.3066 21.958C29.5215 21.958 28.5986 22.1953 27.5381 22.6699L26.6504 20.8594C27.7812 20.2676 29.0352 19.9717 30.4121 19.9717C31.7305 19.9717 32.7412 20.2588 33.4443 20.833C34.1475 21.4072 34.499 22.2803 34.499 23.4521V30H32.627ZM31.8359 25.4473L30.7988 25.4824C30.0195 25.5059 29.4395 25.6465 29.0586 25.9043C28.6777 26.1621 28.4873 26.5547 28.4873 27.082C28.4873 27.8379 28.9209 28.2158 29.7881 28.2158C30.4092 28.2158 30.9043 28.0371 31.2734 27.6797C31.6484 27.3223 31.8359 26.8477 31.8359 26.2559V25.4473ZM35.8613 20.1738H38.7969L40.6514 25.7021C40.8096 26.1826 40.918 26.751 40.9766 27.4072H41.0293C41.0938 26.8037 41.2197 26.2354 41.4072 25.7021L43.2266 20.1738H46.1006L41.9434 31.2568C41.5625 32.2822 41.0176 33.0498 40.3086 33.5596C39.6055 34.0693 38.7822 34.3242 37.8389 34.3242C37.376 34.3242 36.9219 34.2744 36.4766 34.1748V32.0479C36.7988 32.124 37.1504 32.1621 37.5312 32.1621C38.0059 32.1621 38.4189 32.0156 38.7705 31.7227C39.1279 31.4355 39.4062 30.999 39.6055 30.4131L39.7637 29.9297L35.8613 20.1738ZM15.1807 55H12.4648V47.5645C12.4648 47.4121 12.4648 47.2305 12.4648 47.0195C12.4707 46.8027 12.4766 46.5801 12.4824 46.3516C12.4941 46.1172 12.5029 45.8828 12.5088 45.6484C12.5205 45.4141 12.5293 45.2002 12.5352 45.0068C12.5059 45.042 12.4561 45.0947 12.3857 45.165C12.3154 45.2354 12.2363 45.3145 12.1484 45.4023C12.0605 45.4844 11.9697 45.5693 11.876 45.6572C11.7822 45.7451 11.6914 45.8242 11.6035 45.8945L10.127 47.0811L8.80859 45.4463L12.9482 42.1504H15.1807V55ZM25.0947 55H22.3789V47.5645C22.3789 47.4121 22.3789 47.2305 22.3789 47.0195C22.3848 46.8027 22.3906 46.5801 22.3965 46.3516C22.4082 46.1172 22.417 45.8828 22.4229 45.6484C22.4346 45.4141 22.4434 45.2002 22.4492 45.0068C22.4199 45.042 22.3701 45.0947 22.2998 45.165C22.2295 45.2354 22.1504 45.3145 22.0625 45.4023C21.9746 45.4844 21.8838 45.5693 21.79 45.6572C21.6963 45.7451 21.6055 45.8242 21.5176 45.8945L20.041 47.0811L18.7227 45.4463L22.8623 42.1504H25.0947V55ZM33.374 53.04C33.8428 53.04 34.4053 52.9375 35.0615 52.7324V54.7275C34.3936 55.0264 33.5732 55.1758 32.6006 55.1758C31.5283 55.1758 30.7461 54.9062 30.2539 54.3672C29.7676 53.8223 29.5244 53.0078 29.5244 51.9238V47.1865H28.2412V46.0527L29.7178 45.1562L30.4912 43.082H32.2051V45.1738H34.9561V47.1865H32.2051V51.9238C32.2051 52.3047 32.3105 52.5859 32.5215 52.7676C32.7383 52.9492 33.0225 53.04 33.374 53.04ZM46.127 55H43.4463V49.2607C43.4463 47.8428 42.9189 47.1338 41.8643 47.1338C41.1143 47.1338 40.5723 47.3887 40.2383 47.8984C39.9043 48.4082 39.7373 49.2344 39.7373 50.377V55H37.0566V41.3242H39.7373V44.1104C39.7373 44.3271 39.7168 44.8369 39.6758 45.6396L39.6143 46.4307H39.7549C40.3525 45.4697 41.3018 44.9893 42.6025 44.9893C43.7568 44.9893 44.6328 45.2998 45.2305 45.9209C45.8281 46.542 46.127 47.4326 46.127 48.5928V55Z" fill="white"/>
<path d="M58.6855 89.1074L58.4395 88.7207C58.6973 87.6543 59.1191 86.3184 59.7051 84.7129C60.3027 83.0957 60.9121 81.625 61.5332 80.3008H65.3828C64.6094 83.4297 64.0176 86.3652 63.6074 89.1074H58.6855ZM85.2109 106H67.2461V102.221L73.6973 95.6992C75.6074 93.7422 76.8555 92.3887 77.4414 91.6387C78.0273 90.877 78.4492 90.1738 78.707 89.5293C78.9648 88.8848 79.0938 88.2168 79.0938 87.5254C79.0938 86.4941 78.8066 85.7266 78.2324 85.2227C77.6699 84.7188 76.9141 84.4668 75.9648 84.4668C74.9688 84.4668 74.002 84.6953 73.0645 85.1523C72.127 85.6094 71.1484 86.2598 70.1289 87.1035L67.1758 83.6055C68.4414 82.5273 69.4902 81.7656 70.3223 81.3203C71.1543 80.875 72.0625 80.5352 73.0469 80.3008C74.0312 80.0547 75.1328 79.9316 76.3516 79.9316C77.957 79.9316 79.375 80.2246 80.6055 80.8105C81.8359 81.3965 82.791 82.2168 83.4707 83.2715C84.1504 84.3262 84.4902 85.5332 84.4902 86.8926C84.4902 88.0762 84.2793 89.1895 83.8574 90.2324C83.4473 91.2637 82.8027 92.3242 81.9238 93.4141C81.0566 94.5039 79.5215 96.0566 77.3184 98.0723L74.0137 101.184V101.43H85.2109V106ZM105.672 93.1504C105.672 97.6387 104.934 100.961 103.457 103.117C101.992 105.273 99.7305 106.352 96.6719 106.352C93.707 106.352 91.4688 105.238 89.957 103.012C88.457 100.785 87.707 97.498 87.707 93.1504C87.707 88.6152 88.4395 85.2754 89.9043 83.1309C91.3691 80.9746 93.625 79.8965 96.6719 79.8965C99.6367 79.8965 101.875 81.0215 103.387 83.2715C104.91 85.5215 105.672 88.8145 105.672 93.1504ZM93.1035 93.1504C93.1035 96.3027 93.373 98.5645 93.9121 99.9355C94.4629 101.295 95.3828 101.975 96.6719 101.975C97.9375 101.975 98.8516 101.283 99.4141 99.9004C99.9766 98.5176 100.258 96.2676 100.258 93.1504C100.258 89.998 99.9707 87.7363 99.3965 86.3652C98.834 84.9824 97.9258 84.291 96.6719 84.291C95.3945 84.291 94.4805 84.9824 93.9297 86.3652C93.3789 87.7363 93.1035 89.998 93.1035 93.1504Z" fill="#FFC69F"/>
</svg>
