<svg width="110" height="110" viewBox="0 0 110 110" fill="none" xmlns="http://www.w3.org/2000/svg">
<rect width="110" height="110" fill="#407B9D"/>
<path d="M16.6909 25.6299C16.6909 26.7256 16.2952 27.5889 15.5039 28.2197C14.7181 28.8506 13.6224 29.166 12.2168 29.166C10.9219 29.166 9.77637 28.9225 8.78027 28.4355V26.0449C9.59928 26.4102 10.291 26.6675 10.8555 26.8169C11.4255 26.9663 11.9456 27.041 12.416 27.041C12.9805 27.041 13.4121 26.9331 13.7109 26.7173C14.0153 26.5015 14.1675 26.1805 14.1675 25.7544C14.1675 25.5164 14.1011 25.3062 13.9683 25.1235C13.8354 24.9354 13.639 24.7555 13.3789 24.584C13.1243 24.4124 12.6014 24.1385 11.8101 23.7622C11.0685 23.4136 10.5124 23.0788 10.1416 22.7578C9.77083 22.4368 9.47477 22.0633 9.25342 21.6372C9.03206 21.2111 8.92139 20.7131 8.92139 20.1431C8.92139 19.0695 9.28385 18.2256 10.0088 17.6113C10.7393 16.9971 11.7464 16.6899 13.0303 16.6899C13.6611 16.6899 14.2616 16.7646 14.8315 16.9141C15.4071 17.0635 16.0075 17.2738 16.6328 17.5449L15.8027 19.5454C15.1553 19.2798 14.6185 19.0944 14.1924 18.9893C13.7718 18.8841 13.3568 18.8315 12.9473 18.8315C12.4603 18.8315 12.0868 18.945 11.8267 19.1719C11.5666 19.3988 11.4365 19.6948 11.4365 20.0601C11.4365 20.2869 11.4891 20.4862 11.5942 20.6577C11.6994 20.8237 11.8654 20.987 12.0923 21.1475C12.3247 21.3024 12.8698 21.5846 13.7275 21.9941C14.862 22.5365 15.6395 23.0815 16.0601 23.6294C16.4806 24.1717 16.6909 24.8385 16.6909 25.6299ZM22.5347 21.3467C21.9979 21.3467 21.5773 21.5182 21.2729 21.8613C20.9686 22.1989 20.7943 22.6803 20.75 23.3057H24.3027C24.2917 22.6803 24.1284 22.1989 23.813 21.8613C23.4976 21.5182 23.0715 21.3467 22.5347 21.3467ZM22.8916 29.166C21.3975 29.166 20.2298 28.7537 19.3887 27.9292C18.5475 27.1047 18.127 25.937 18.127 24.4263C18.127 22.8713 18.5143 21.6704 19.2891 20.8237C20.0693 19.9715 21.1457 19.5454 22.5181 19.5454C23.8296 19.5454 24.8506 19.9189 25.5811 20.666C26.3115 21.4131 26.6768 22.4451 26.6768 23.7622V24.9907H20.6919C20.7196 25.7101 20.9326 26.2718 21.3311 26.6758C21.7295 27.0798 22.2884 27.2817 23.0078 27.2817C23.5667 27.2817 24.0952 27.2236 24.5933 27.1074C25.0913 26.9912 25.6115 26.8058 26.1538 26.5513V28.5103C25.7111 28.7316 25.238 28.8949 24.7344 29C24.2308 29.1107 23.6165 29.166 22.8916 29.166ZM33.832 29.166C32.7419 29.166 31.8869 28.7703 31.2671 27.979H31.1343C31.2228 28.7537 31.2671 29.202 31.2671 29.3237V33.084H28.7354V19.7197H30.7939L31.1509 20.9233H31.2671C31.8592 20.0047 32.7363 19.5454 33.8984 19.5454C34.9941 19.5454 35.8519 19.9688 36.4717 20.8154C37.0915 21.6621 37.4014 22.8381 37.4014 24.3433C37.4014 25.3338 37.2547 26.1943 36.9614 26.9248C36.6737 27.6553 36.2614 28.2114 35.7246 28.5933C35.1878 28.9751 34.557 29.166 33.832 29.166ZM33.085 21.5708C32.4596 21.5708 32.0031 21.7645 31.7153 22.1519C31.4276 22.5337 31.2782 23.1673 31.2671 24.0527V24.3267C31.2671 25.3228 31.4137 26.0366 31.707 26.4683C32.0059 26.8999 32.4762 27.1157 33.1182 27.1157C34.2526 27.1157 34.8198 26.1805 34.8198 24.3101C34.8198 23.397 34.6787 22.7135 34.3965 22.2598C34.1198 21.8005 33.6826 21.5708 33.085 21.5708ZM43.4028 27.1489C43.8455 27.1489 44.3768 27.0521 44.9966 26.8584V28.7427C44.3657 29.0249 43.591 29.166 42.6724 29.166C41.6597 29.166 40.9209 28.9115 40.4561 28.4023C39.9967 27.8877 39.7671 27.1185 39.7671 26.0947V21.6206H38.5552V20.5498L39.9497 19.7031L40.6802 17.7441H42.2988V19.7197H44.897V21.6206H42.2988V26.0947C42.2988 26.4544 42.3984 26.7201 42.5977 26.8916C42.8024 27.0632 43.0708 27.1489 43.4028 27.1489ZM50.7241 21.3467C50.1873 21.3467 49.7668 21.5182 49.4624 21.8613C49.158 22.1989 48.9837 22.6803 48.9395 23.3057H52.4922C52.4811 22.6803 52.3179 22.1989 52.0024 21.8613C51.687 21.5182 51.2609 21.3467 50.7241 21.3467ZM51.0811 29.166C49.5869 29.166 48.4193 28.7537 47.5781 27.9292C46.737 27.1047 46.3164 25.937 46.3164 24.4263C46.3164 22.8713 46.7038 21.6704 47.4785 20.8237C48.2588 19.9715 49.3351 19.5454 50.7075 19.5454C52.019 19.5454 53.04 19.9189 53.7705 20.666C54.501 21.4131 54.8662 22.4451 54.8662 23.7622V24.9907H48.8813C48.909 25.7101 49.1221 26.2718 49.5205 26.6758C49.9189 27.0798 50.4779 27.2817 51.1973 27.2817C51.7562 27.2817 52.2847 27.2236 52.7827 27.1074C53.2808 26.9912 53.8009 26.8058 54.3433 26.5513V28.5103C53.9006 28.7316 53.4274 28.8949 52.9238 29C52.4202 29.1107 51.806 29.166 51.0811 29.166ZM65.2339 29H62.7021V23.5796C62.7021 22.91 62.5887 22.4092 62.3618 22.0771C62.1405 21.7396 61.7891 21.5708 61.3076 21.5708C60.6602 21.5708 60.1898 21.8088 59.8965 22.2847C59.6032 22.7606 59.4565 23.5436 59.4565 24.6338V29H56.9248V19.7197H58.8589L59.1992 20.9067H59.3403C59.5894 20.4806 59.9491 20.1486 60.4194 19.9106C60.8898 19.6672 61.4294 19.5454 62.0381 19.5454C63.4271 19.5454 64.3678 19.9992 64.8604 20.9067H65.0845C65.3335 20.4751 65.6987 20.1403 66.1802 19.9023C66.6672 19.6644 67.215 19.5454 67.8237 19.5454C68.8752 19.5454 69.6693 19.8166 70.2061 20.3589C70.7484 20.8957 71.0195 21.759 71.0195 22.9487V29H68.4795V23.5796C68.4795 22.91 68.366 22.4092 68.1392 22.0771C67.9178 21.7396 67.5664 21.5708 67.085 21.5708C66.4652 21.5708 66.0003 21.7922 65.6904 22.2349C65.3861 22.6776 65.2339 23.3804 65.2339 24.3433V29ZM78.7891 19.5454C79.8848 19.5454 80.7425 19.9743 81.3623 20.832C81.9821 21.6842 82.292 22.8547 82.292 24.3433C82.292 25.8761 81.971 27.0632 81.3291 27.9043C80.6927 28.7454 79.8239 29.166 78.7227 29.166C77.6325 29.166 76.7775 28.7703 76.1577 27.979H75.9834L75.5601 29H73.626V16.084H76.1577V19.0889C76.1577 19.4707 76.1245 20.0822 76.0581 20.9233H76.1577C76.7498 20.0047 77.627 19.5454 78.7891 19.5454ZM77.9756 21.5708C77.3503 21.5708 76.8937 21.7645 76.606 22.1519C76.3182 22.5337 76.1688 23.1673 76.1577 24.0527V24.3267C76.1577 25.3228 76.3044 26.0366 76.5977 26.4683C76.8965 26.8999 77.3669 27.1157 78.0088 27.1157C78.529 27.1157 78.9412 26.8778 79.2456 26.4019C79.5555 25.9204 79.7104 25.2231 79.7104 24.3101C79.7104 23.397 79.5555 22.7135 79.2456 22.2598C78.9357 21.8005 78.5124 21.5708 77.9756 21.5708ZM88.2271 21.3467C87.6903 21.3467 87.2697 21.5182 86.9653 21.8613C86.661 22.1989 86.4867 22.6803 86.4424 23.3057H89.9951C89.984 22.6803 89.8208 22.1989 89.5054 21.8613C89.1899 21.5182 88.7638 21.3467 88.2271 21.3467ZM88.584 29.166C87.0898 29.166 85.9222 28.7537 85.0811 27.9292C84.2399 27.1047 83.8193 25.937 83.8193 24.4263C83.8193 22.8713 84.2067 21.6704 84.9814 20.8237C85.7617 19.9715 86.8381 19.5454 88.2104 19.5454C89.522 19.5454 90.543 19.9189 91.2734 20.666C92.0039 21.4131 92.3691 22.4451 92.3691 23.7622V24.9907H86.3843C86.4119 25.7101 86.625 26.2718 87.0234 26.6758C87.4219 27.0798 87.9808 27.2817 88.7002 27.2817C89.2591 27.2817 89.7876 27.2236 90.2856 27.1074C90.7837 26.9912 91.3039 26.8058 91.8462 26.5513V28.5103C91.4035 28.7316 90.9303 28.8949 90.4268 29C89.9232 29.1107 89.3089 29.166 88.584 29.166ZM99.6074 19.5454C99.9505 19.5454 100.236 19.5703 100.462 19.6201L100.271 21.9941C100.067 21.9388 99.8177 21.9111 99.5244 21.9111C98.7165 21.9111 98.0856 22.1187 97.6318 22.5337C97.1836 22.9487 96.9595 23.5298 96.9595 24.2769V29H94.4277V19.7197H96.3452L96.7188 21.2803H96.8433C97.131 20.7601 97.5184 20.3423 98.0054 20.0269C98.4979 19.7059 99.0319 19.5454 99.6074 19.5454ZM9.71826 52L14.0347 42.0391H8.45654V39.8809H16.8237V41.4912L12.3994 52H9.71826ZM22.6011 50.1489C23.0438 50.1489 23.575 50.0521 24.1948 49.8584V51.7427C23.564 52.0249 22.7892 52.166 21.8706 52.166C20.8579 52.166 20.1191 51.9115 19.6543 51.4023C19.195 50.8877 18.9653 50.1185 18.9653 49.0947V44.6206H17.7534V43.5498L19.1479 42.7031L19.8784 40.7441H21.4971V42.7197H24.0952V44.6206H21.4971V49.0947C21.4971 49.4544 21.5967 49.7201 21.7959 49.8916C22.0007 50.0632 22.269 50.1489 22.6011 50.1489ZM34.6455 52H32.1138V46.5796C32.1138 45.2404 31.6157 44.5708 30.6196 44.5708C29.9113 44.5708 29.3994 44.8115 29.084 45.293C28.7686 45.7744 28.6108 46.5547 28.6108 47.6338V52H26.0791V39.084H28.6108V41.7153C28.6108 41.9201 28.5915 42.4015 28.5527 43.1597L28.4946 43.9067H28.6274C29.1919 42.9992 30.0884 42.5454 31.3169 42.5454C32.4071 42.5454 33.2344 42.8387 33.7988 43.4253C34.3633 44.0119 34.6455 44.853 34.6455 45.9487V52Z" fill="white"/>
<path d="M58.6855 89.1074L58.4395 88.7207C58.6973 87.6543 59.1191 86.3184 59.7051 84.7129C60.3027 83.0957 60.9121 81.625 61.5332 80.3008H65.3828C64.6094 83.4297 64.0176 86.3652 63.6074 89.1074H58.6855ZM85.2109 106H67.2461V102.221L73.6973 95.6992C75.6074 93.7422 76.8555 92.3887 77.4414 91.6387C78.0273 90.877 78.4492 90.1738 78.707 89.5293C78.9648 88.8848 79.0938 88.2168 79.0938 87.5254C79.0938 86.4941 78.8066 85.7266 78.2324 85.2227C77.6699 84.7188 76.9141 84.4668 75.9648 84.4668C74.9688 84.4668 74.002 84.6953 73.0645 85.1523C72.127 85.6094 71.1484 86.2598 70.1289 87.1035L67.1758 83.6055C68.4414 82.5273 69.4902 81.7656 70.3223 81.3203C71.1543 80.875 72.0625 80.5352 73.0469 80.3008C74.0312 80.0547 75.1328 79.9316 76.3516 79.9316C77.957 79.9316 79.375 80.2246 80.6055 80.8105C81.8359 81.3965 82.791 82.2168 83.4707 83.2715C84.1504 84.3262 84.4902 85.5332 84.4902 86.8926C84.4902 88.0762 84.2793 89.1895 83.8574 90.2324C83.4473 91.2637 82.8027 92.3242 81.9238 93.4141C81.0566 94.5039 79.5215 96.0566 77.3184 98.0723L74.0137 101.184V101.43H85.2109V106ZM105.672 93.1504C105.672 97.6387 104.934 100.961 103.457 103.117C101.992 105.273 99.7305 106.352 96.6719 106.352C93.707 106.352 91.4688 105.238 89.957 103.012C88.457 100.785 87.707 97.498 87.707 93.1504C87.707 88.6152 88.4395 85.2754 89.9043 83.1309C91.3691 80.9746 93.625 79.8965 96.6719 79.8965C99.6367 79.8965 101.875 81.0215 103.387 83.2715C104.91 85.5215 105.672 88.8145 105.672 93.1504ZM93.1035 93.1504C93.1035 96.3027 93.373 98.5645 93.9121 99.9355C94.4629 101.295 95.3828 101.975 96.6719 101.975C97.9375 101.975 98.8516 101.283 99.4141 99.9004C99.9766 98.5176 100.258 96.2676 100.258 93.1504C100.258 89.998 99.9707 87.7363 99.3965 86.3652C98.834 84.9824 97.9258 84.291 96.6719 84.291C95.3945 84.291 94.4805 84.9824 93.9297 86.3652C93.3789 87.7363 93.1035 89.998 93.1035 93.1504Z" fill="#FFC69F"/>
</svg>
